HIERARCHY
ROOT Hips
{
	OFFSET 0.000000 0.000000 0.000000
	CHANNELS 6 Xposition Yposition Zposition Zrotation Yrotation Xrotation 
	JOINT LHipJoint
	{
		OFFSET 0.000000 0.000000 0.000000
		CHANNELS 3 Zrotation Yrotation Xrotation
		JOINT LeftUpLeg
		{
			OFFSET 1.363060 -1.794630 0.839290
			CHANNELS 3 Zrotation Yrotation Xrotation
			JOINT LeftLeg
			{
				OFFSET 2.448110 -6.726130 0.000000
				CHANNELS 3 Zrotation Yrotation Xrotation
				JOINT LeftFoot
				{
					OFFSET 2.562200 -7.039590 0.000000
					CHANNELS 3 Zrotation Yrotation Xrotation
					JOINT LeftToeBase
					{
						OFFSET 0.157640 -0.433110 2.322550
						CHANNELS 3 Zrotation Yrotation Xrotation
						End Site
						{
							OFFSET 0.000000 0.000000 0.000000
						}
					}
				}
			}
		}
	}
	JOINT RHipJoint
	{
		OFFSET 0.000000 0.000000 0.000000
		CHANNELS 3 Zrotation Yrotation Xrotation
		JOINT RightUpLeg
		{
			OFFSET -1.305520 -1.794630 0.839290
			CHANNELS 3 Zrotation Yrotation Xrotation
			JOINT RightLeg
			{
				OFFSET -2.542530 -6.985550 0.000000
				CHANNELS 3 Zrotation Yrotation Xrotation
				JOINT RightFoot
				{
					OFFSET -2.568260 -7.056230 0.000000
					CHANNELS 3 Zrotation Yrotation Xrotation
					JOINT RightToeBase
					{
						OFFSET -0.164730 -0.452590 2.363150
						CHANNELS 3 Zrotation Yrotation Xrotation
						End Site
						{
							OFFSET 0.000000 0.000000 0.000000
						}
					}
				}
			}
		}
	}
	JOINT LowerBack
	{
		OFFSET 0.000000 0.000000 0.000000
		CHANNELS 3 Zrotation Yrotation Xrotation
		JOINT Spine
		{
			OFFSET 0.028270 2.035590 -0.193380
			CHANNELS 3 Zrotation Yrotation Xrotation
			JOINT Spine1
			{
				OFFSET 0.056720 2.048850 -0.042750
				CHANNELS 3 Zrotation Yrotation Xrotation
				JOINT Neck
				{
					OFFSET 0.000000 0.000000 0.000000
					CHANNELS 3 Zrotation Yrotation Xrotation
					JOINT Neck1
					{
						OFFSET -0.054170 1.746240 0.172020
						CHANNELS 3 Zrotation Yrotation Xrotation
						JOINT Head
						{
							OFFSET 0.104070 1.761360 -0.123970
							CHANNELS 3 Zrotation Yrotation Xrotation
							End Site
							{
								OFFSET 0.000000 0.000000 0.000000
							}
						}
					}
				}
				JOINT LeftShoulder
				{
					OFFSET 0.000000 0.000000 0.000000
					CHANNELS 3 Zrotation Yrotation Xrotation
					JOINT LeftArm
					{
						OFFSET 3.362410 1.200890 -0.311210
						CHANNELS 3 Zrotation Yrotation Xrotation
						JOINT LeftForeArm
						{
							OFFSET 4.983000 -0.000000 -0.000000
							CHANNELS 3 Zrotation Yrotation Xrotation
							JOINT LeftHand
							{
								OFFSET 3.483560 -0.000000 -0.000000
								CHANNELS 3 Zrotation Yrotation Xrotation
								JOINT LeftFingerBase
								{
									OFFSET 0.000000 0.000000 0.000000
									CHANNELS 3 Zrotation Yrotation Xrotation
									JOINT LeftHandIndex1
									{
										OFFSET 0.715260 -0.000000 -0.000000
										CHANNELS 3 Zrotation Yrotation Xrotation
										End Site
										{
											OFFSET 0.000000 0.000000 0.000000
										}
									}
								}
								JOINT LThumb
								{
									OFFSET 0.000000 0.000000 0.000000
									CHANNELS 3 Zrotation Yrotation Xrotation
									End Site
									{
										OFFSET 0.000000 0.000000 0.000000
									}
								}
							}
						}
					}
				}
				JOINT RightShoulder
				{
					OFFSET 0.000000 0.000000 0.000000
					CHANNELS 3 Zrotation Yrotation Xrotation
					JOINT RightArm
					{
						OFFSET -3.136600 1.374050 -0.404650
						CHANNELS 3 Zrotation Yrotation Xrotation
						JOINT RightForeArm
						{
							OFFSET -5.241900 -0.000000 -0.000000
							CHANNELS 3 Zrotation Yrotation Xrotation
							JOINT RightHand
							{
								OFFSET -3.444170 -0.000000 -0.000000
								CHANNELS 3 Zrotation Yrotation Xrotation
								JOINT RightFingerBase
								{
									OFFSET 0.000000 0.000000 0.000000
									CHANNELS 3 Zrotation Yrotation Xrotation
									JOINT RightHandIndex1
									{
										OFFSET -0.622530 -0.000000 -0.000000
										CHANNELS 3 Zrotation Yrotation Xrotation
										End Site
										{
											OFFSET 0.000000 0.000000 0.000000
										}
									}
								}
								JOINT RThumb
								{
									OFFSET 0.000000 0.000000 0.000000
									CHANNELS 3 Zrotation Yrotation Xrotation
									End Site
									{
										OFFSET 0.000000 0.000000 0.000000
									}
								}
							}
						}
					}
				}
			}
		}
	}
}
MOTION
Frames: 9
Frame Time: 0.008333
-1.829242 16.003516 0.124701 -124.419432 84.115797 -98.768931 -11.697905 -1.637322 -4.257024 -10.605849 5.123718 -48.192555 1.252029 4.759776 79.043923 3.922597 20.777542 -23.192591 -5.307001 -0.000000 -7.888100 8.442327 -0.824132 -2.082391 11.441113 1.927807 -31.247026 2.301016 -2.785325 44.310575 -2.992175 -7.783418 -26.555945 2.992900 -0.000000 -51.877600 2.328490 -1.312767 9.034961 -0.576759 -1.240626 -1.471300 -6.924922 -1.387192 -1.061276 9.938617 8.965140 4.680594 -3.702322 -0.363087 2.908843 0.000000 0.000000 0.000000 -7.859340 -9.323246 3.818443 -67.680528 -7.480712 3.748420 -3.082998 -0.807058 -0.014094 3.246983 11.096915 0.317764 -0.049469 0.084542 0.000000 0.000000 0.000000 0.000000 0.000000 0.000000 0.000000 16.306440 7.834323 -0.525358 76.963007 30.353401 17.865986 1.575090 27.730685 -0.009646 -5.528098 13.155110 -0.654348 0.047887 -0.226452 0.000000 0.000000 0.000000 0.000000 0.000000 0.000000 0.000000 
-1.612837 16.106922 0.079132 -128.758339 84.110076 -102.938301 -11.512430 -1.709340 -4.021146 -10.954576 4.791869 -49.058235 0.967821 4.594283 76.600114 3.867618 20.033955 -23.241201 -5.145400 -0.000000 -8.433400 8.459690 -0.901776 -2.046247 11.013255 1.609443 -29.558794 2.315885 -2.561569 41.892704 -2.888533 -7.868304 -24.794970 2.679700 0.000000 -53.250399 1.808526 -1.254956 8.753227 -0.674835 -1.188871 -1.532489 -6.823278 -1.327307 -1.070163 9.726543 8.582452 4.610928 -3.662523 -0.363349 2.895637 0.000000 0.000000 0.000000 -7.696225 -9.122506 3.865143 -67.831283 -5.077243 5.321356 -3.188136 -1.927207 -0.016054 2.621094 13.629279 0.317729 -0.054008 0.076181 0.000000 0.000000 0.000000 0.000000 0.000000 0.000000 0.000000 15.905979 7.739077 -0.704321 77.904003 31.206380 21.923310 1.515959 30.546707 -0.009353 -5.010712 12.879743 -0.581231 0.044531 -0.235021 0.000000 0.000000 0.000000 0.000000 0.000000 0.000000 0.000000 
-1.391795 16.214355 0.028324 -132.694756 84.081650 -106.661302 -11.322991 -1.764229 -3.758519 -11.296133 4.445568 -49.847681 0.670454 4.406391 73.853972 3.817997 19.289459 -23.205548 -4.952700 0.000000 -9.124400 8.489020 -0.986937 -1.993430 10.571733 1.299933 -28.005778 2.305045 -2.355182 39.549783 -2.739510 -7.862357 -22.645371 2.270900 -0.000000 -55.250999 1.293571 -1.182177 8.422845 -0.770707 -1.120578 -1.591695 -6.721691 -1.250319 -1.033493 9.502417 8.163048 4.522306 -3.618360 -0.363042 2.877223 0.000000 0.000000 0.000000 -7.529176 -8.723526 3.887303 -67.969038 -3.229197 6.856759 -3.267365 -2.475804 -0.018099 2.207695 15.533450 0.307293 -0.057959 0.069140 0.000000 0.000000 0.000000 0.000000 0.000000 0.000000 0.000000 15.467408 7.596248 -0.898179 78.797438 32.077971 25.550858 1.451559 33.340800 -0.009163 -4.603707 12.550026 -0.520816 0.042187 -0.243668 0.000000 0.000000 0.000000 0.000000 0.000000 0.000000 0.000000 
-1.166533 16.324776 -0.027865 -136.105274 84.039300 -109.816392 -11.127471 -1.800617 -3.470100 -11.629334 4.089654 -50.556780 0.363045 4.194933 70.807572 3.777452 18.559868 -23.103644 -4.741200 -0.000000 -9.843100 8.536799 -1.080991 -1.927697 10.116375 0.980803 -26.627320 2.271476 -2.175877 37.342005 -2.541712 -7.732521 -20.103617 1.774500 0.000000 -57.871400 0.792453 -1.087665 8.046121 -0.863178 -1.028849 -1.651004 -6.620539 -1.149883 -0.958901 9.264710 7.704648 4.425592 -3.570821 -0.362323 2.856611 0.000000 0.000000 0.000000 -7.390311 -8.186090 3.886048 -68.081810 -1.924566 8.553904 -3.328974 -2.374430 -0.019696 1.909584 16.755899 0.288660 -0.061104 0.062892 0.000000 0.000000 0.000000 0.000000 0.000000 0.000000 0.000000 14.992843 7.398086 -1.103673 79.657975 32.962390 28.783096 1.386424 36.082217 -0.009048 -4.292512 12.189800 -0.472303 0.040824 -0.252245 0.000000 0.000000 0.000000 0.000000 0.000000 0.000000 0.000000 
-0.937739 16.436964 -0.089315 -138.938770 83.991925 -112.354944 -10.924213 -1.818727 -3.158170 -11.952948 3.725848 -51.180811 0.049732 3.958335 67.466955 3.747936 17.856645 -22.936254 -4.515100 0.000000 -10.597099 8.608590 -1.184004 -1.856592 9.645711 0.627008 -25.456214 2.219506 -2.032634 35.324483 -2.295426 -7.447761 -17.181202 1.213800 0.000000 -61.075700 0.308317 -0.971013 7.632610 -0.952062 -0.912861 -1.712286 -6.520182 -1.025535 -0.859642 9.015289 7.236719 4.328199 -3.518570 -0.361161 2.835740 0.000000 0.000000 0.000000 -7.302017 -7.522854 3.862885 -68.157729 -1.002753 10.043393 -3.364694 -1.911765 -0.020530 1.772591 17.336383 0.278334 -0.062828 0.057078 0.000000 0.000000 0.000000 0.000000 0.000000 0.000000 0.000000 14.477798 7.178959 -1.317870 80.484202 33.812928 31.593393 1.322907 38.797255 -0.008977 -4.041564 11.799274 -0.430992 0.040110 -0.260737 -0.000000 0.000000 0.000000 0.000000 0.000000 0.000000 0.000000 
-0.706123 16.549666 -0.155789 -141.201570 83.947749 -114.290577 -10.713040 -1.818659 -2.824622 -12.266369 3.354680 -51.711692 -0.266061 3.694815 63.842660 3.730093 17.184860 -22.710364 -4.279200 0.000000 -11.292200 8.707637 -1.294552 -1.787906 9.156821 0.215061 -24.510425 2.153994 -1.931412 33.541885 -2.006783 -6.982644 -13.918116 0.630300 0.000001 -64.642999 -0.156137 -0.830642 7.191743 -1.037977 -0.771125 -1.775321 -6.423539 -0.876039 -0.741291 8.757673 6.747030 4.232527 -3.464078 -0.359716 2.815230 0.000000 0.000000 0.000000 -7.284740 -6.784065 3.819713 -68.180820 -0.434503 11.606889 -3.386151 -1.059578 -0.020354 1.649522 17.226223 0.258117 -0.063453 0.051137 0.000000 0.000000 0.000000 0.000000 0.000000 0.000000 0.000000 13.939457 6.923291 -1.535173 81.277575 34.646578 34.067973 1.264250 41.447464 -0.008942 -3.850663 11.414137 -0.397880 0.040144 -0.269149 -0.000000 0.000000 0.000000 0.000000 0.000000 0.000000 0.000000 
-0.472510 16.661488 -0.226837 -142.945077 83.911825 -115.682951 -10.494774 -1.801359 -2.472143 -12.568540 2.974908 -52.141741 -0.580737 3.402478 59.950927 3.722960 16.546926 -22.423169 -4.033700 -0.000000 -11.893600 8.834991 -1.408733 -1.730393 8.646952 -0.274011 -23.793616 2.078981 -1.874657 32.026463 -1.688624 -6.325038 -10.376302 0.079399 0.000000 -68.301700 -0.602455 -0.669017 6.736671 -1.121973 -0.606108 -1.839814 -6.332387 -0.703992 -0.612918 8.496603 6.241252 4.139597 -3.408033 -0.358031 2.795322 0.000000 0.000000 0.000000 -7.343043 -6.001429 3.758999 -68.143619 -0.115574 13.215975 -3.395774 0.034964 -0.019156 1.492230 16.438606 0.223609 -0.063132 0.044760 0.000000 0.000000 0.000000 0.000000 0.000000 0.000000 0.000000 13.388585 6.639111 -1.749932 82.033497 35.459972 36.252635 1.212008 44.024348 -0.008926 -3.706700 11.054295 -0.371569 0.040837 -0.277576 -0.000000 0.000000 0.000000 0.000000 0.000000 0.000000 0.000000 
-0.237803 16.770904 -0.301852 -144.248458 83.888732 -116.618906 -10.272313 -1.768829 -2.105085 -12.857965 2.585112 -52.464923 -0.891373 3.080017 55.814100 3.724138 15.943654 -22.068297 -3.778000 -0.000000 -12.390200 8.987525 -1.519516 -1.693281 8.114662 -0.848209 -23.294809 1.996907 -1.860371 30.794765 -1.360821 -5.484027 -6.638614 -0.377600 0.000000 -71.789300 -1.031865 -0.497376 6.285432 -1.205106 -0.428972 -1.907860 -6.250767 -0.520836 -0.496147 8.230224 5.738526 4.049499 -3.351018 -0.356159 2.776202 0.000000 0.000000 0.000000 -7.468568 -5.219436 3.687590 -67.955551 0.427444 14.900941 -3.401146 0.382414 -0.017575 1.275874 15.403348 0.180109 -0.062499 0.037151 0.000000 0.000000 0.000000 0.000000 0.000000 0.000000 0.000000 12.828773 6.361999 -1.951355 82.752433 36.235298 38.168162 1.170321 46.532309 -0.008855 -3.587933 10.724743 -0.349655 0.042236 -0.286221 -0.000000 0.000000 0.000000 0.000000 0.000000 0.000000 0.000000 
-0.002818 16.876403 -0.380153 -145.197884 83.880358 -117.191622 -10.050277 -1.724509 -1.728791 -13.130647 2.185761 -52.678721 -1.195682 2.726317 51.461894 3.730270 15.376722 -21.639383 -3.511300 0.000000 -12.781400 9.158185 -1.618111 -1.684179 7.561863 -1.500039 -22.987081 1.909092 -1.882099 29.848315 -1.048281 -4.494700 -2.812385 -0.687000 -0.000000 -74.821200 -1.442565 -0.330358 5.857075 -1.288555 -0.254563 -1.982017 -6.187358 -0.341759 -0.415476 7.954202 5.242175 3.959109 -3.294925 -0.354215 2.757338 0.000000 0.000000 0.000000 -7.648838 -4.500664 3.613164 -67.438986 1.819473 16.748589 -3.410559 -1.366302 -0.016473 0.991686 14.753294 0.135811 -0.062245 0.026948 0.000000 0.000000 0.000000 0.000000 0.000000 0.000000 0.000000 12.269484 6.116913 -2.125314 83.444055 36.976708 39.874961 1.145325 48.955654 -0.008621 -3.484764 10.438945 -0.331334 0.044748 -0.295319 -0.000000 0.000000 0.000000 0.000000 0.000000 0.000000 0.000000 
